<?xml version="1.0" encoding="UTF-8"?>
<svg width="245px" height="175px" viewBox="0 0 245 175" version="1.1" xmlns="http://www.w3.org/2000/svg" xmlns:xlink="http://www.w3.org/1999/xlink">
    <!-- Generator: Sketch 44.1 (41455) - http://www.bohemiancoding.com/sketch -->
    <title>owlie</title>
    <desc>Created with Sketch.</desc>
    <defs></defs>
    <g id="Page-1" stroke="none" stroke-width="1" fill="none" fill-rule="evenodd">
        <g id="owlie" fill="#ffffff">
            <path d="M169.4503,148.1812 C158.2903,148.1812 147.8883,144.9802 139.0833,139.4622 C137.6293,120.4282 122.3653,109.8752 122.3653,109.8752 L122.1903,109.8752 C122.1903,109.8752 106.9253,120.4282 105.4713,139.4622 C96.6663,144.9802 86.2653,148.1812 75.1053,148.1812 C43.4243,148.1812 17.7393,122.4982 17.7393,90.8152 C17.7393,59.1342 43.4243,33.4502 75.1053,33.4502 C94.6693,33.4502 111.9233,43.2602 122.2773,58.2122 C132.6313,43.2602 149.8863,33.4502 169.4503,33.4502 C201.1323,33.4502 226.8143,59.1342 226.8143,90.8152 C226.8143,122.4982 201.1323,148.1812 169.4503,148.1812 M239.3353,1.5242 C232.9033,2.6052 195.9583,8.8162 195.9583,8.8162 C195.9583,8.8162 195.9763,8.8552 196.0053,8.9192 C195.9373,8.8822 195.8193,8.8162 195.8193,8.8162 C195.8193,8.8162 161.2593,0.0002 122.2163,0.0002 C83.1733,0.0002 48.7363,8.8162 48.7363,8.8162 C48.7363,8.8162 11.7913,2.6052 5.3593,1.5242 C-1.0727,0.4432 0.0803,7.8462 0.0803,7.8462 L8.4053,65.6902 C5.4303,73.6062 3.7643,82.1562 3.7643,91.0992 C3.7643,91.4712 3.7743,91.8412 3.7873,92.2102 L3.8003,92.5982 C3.8003,92.6052 3.8033,92.6122 3.8033,92.6192 C4.6183,131.9732 36.8633,163.7422 76.4093,163.7422 C87.3813,163.7422 97.9573,161.2952 107.5713,156.7192 L108.0173,156.2982 C112.7753,168.1872 122.1903,174.4832 122.1903,174.4832 L122.3653,174.4832 C122.3653,174.4832 131.7563,168.2012 136.5203,156.3392 C146.3333,161.1502 157.1643,163.7422 168.4193,163.7422 C207.9753,163.7422 240.2273,131.9572 241.0273,92.5902 C241.0273,92.5772 241.0313,92.5652 241.0313,92.5522 L241.0413,92.1442 C241.0543,91.7972 241.0643,91.4492 241.0643,91.0992 C241.0643,82.3282 239.4613,73.9372 236.5933,66.1502 C236.5323,65.9832 236.4703,65.8172 236.4073,65.6502 C236.4073,65.6502 236.3793,65.5282 236.3393,65.3462 L244.6143,7.8462 C244.6143,7.8462 245.7673,0.4432 239.3353,1.5242" id="Fill-1"></path>
            <path d="M75.0363,74.8712 C66.2323,74.8712 59.0963,82.0082 59.0963,90.8112 C59.0963,99.6152 66.2323,106.7512 75.0363,106.7512 C83.8403,106.7512 90.9763,99.6152 90.9763,90.8112 C90.9763,82.0082 83.8403,74.8712 75.0363,74.8712" id="Fill-4"></path>
            <path d="M169.5186,74.8712 C160.7146,74.8712 153.5786,82.0082 153.5786,90.8112 C153.5786,99.6152 160.7146,106.7512 169.5186,106.7512 C178.3226,106.7512 185.4586,99.6152 185.4586,90.8112 C185.4586,82.0082 178.3226,74.8712 169.5186,74.8712" id="Fill-6"></path>
        </g>
    </g>
</svg>