<svg width="622" height="193" viewBox="0 0 622 193" xmlns="http://www.w3.org/2000/svg"><title>owltree_logo</title><path d="M524.8 101l.6-1c3.6-5.3 12-9.8 15-8.8 1 .3 1.6 2.6 1.4 6.5-1.2 25.2-16.6 50.7-23 50.7-6.5 0-7-7.6-7-9 0-1-.3-1.6-.5-2.3 2-18 8.8-30 13.5-36M455.6 129c2.8-13.8 8.3-23 12.3-28.3l.5-1c3.6-5.3 12-9.8 15-8.8 1 .3 1.6 2.6 1.4 6.5-1.3 25.2-16.7 50.7-23.2 50.7-6.4 0-7-7.6-7-9 0-.8 0-1.4-.3-2 .4-2.7.8-5.5 1-8.2m-160 45.8c-2.2 0-8.8-.3-12.3-14.7-1-4.3-1.7-9-2-14.2 22.2-11.4 37.2-54.2 43.3-83.3l18.2 1.2c-23 104.7-45.6 110.7-47 111M294 60l18.2 1.7c-5.4 25-17.2 57-31 69.6 1-22.7 6.5-49.3 13-71.3m18.6-44c.3 0 .7 0 1-.2 1 2 3.2 8.6 1.3 28.6 0 1.6-.3 3.4-.6 5.2L297.8 48c5.7-17 11.4-29.6 15-32m-130 131.7c-1.4-23 6-49 11.3-55.5 2 8-1.4 33-11.2 55.5M90 140.2c-1 0-2-.3-3-.5-38.2-7.3-45.5-44.7-46.8-60.4-.6-6.2-.6-12.2 0-18 2.5-2 5.2-3.8 8-5 15-6.5 29.3 1.5 29.5 1.5 3 1.7 6.6.7 8.3-2.2 1.7-3 .7-6.6-2.2-8.3C83 46.8 64.2 36 43.6 45c-.4 0-.7.2-1 .4C46.5 28.8 54 16.7 62 13.7c9.2-3.5 19.5-.7 28.3 7.7 23.3 22.3 20.8 63.3 11.5 91.7-3.5 11-7.5 19.8-11.7 27.2M43 176h-.4c-.2 0-13.4.3-22.2-10.6-9-11-10.6-30.6-4.4-56.3 3-12.8 7-23.5 11.7-32l.3 3.4c3.3 37.7 23.7 64 54.8 71C64 176.4 44 176 43 176m577.3-21.8c-1.7-3-5.4-4-8.4-2.2-28.6 16.8-45.3-.3-46-1-1.3-1.4-3-2-4.8-2-2 0-3.6 1-4.6 2.5-9.7 13-28 31.2-36.7 28.8-4.3-1.2-7.5-9-8.7-21 2 .8 4.6 1.3 7.4 1.3 18.4 0 34-37.8 35.4-62.3.7-13.3-5.8-17.4-9.7-18.7-10.5-3.5-23.8 5.8-29 13.5l-.2.5c-7 9-17.7 28.6-16.4 59.4-10 12.8-27.2 29.6-35.6 27.3-4.2-1.2-7.4-9-8.6-21 2 .8 4.6 1.3 7.4 1.3 18.4 0 34-37.8 35.3-62.3.8-13.3-5.7-17.4-9.6-18.7-10.5-3.5-23.8 5.8-29 13.5l-.2.5c-5.7 7.5-14 22-16 43.8-4.7 26-13.7 40.2-19.5 41-1.4-2.2-2-10.3-1.2-17.3 5-50.6-6.4-57.2-23-61l-1.7-.4c-.8 0-1.6-.4-2.4-.7-2-10.8-6-20.3-14.7-20.3-10.4 0-12.2 6-12.5 8.5-.8 7 7.4 14.8 16 19.7 1.2 14 .4 34.5-5.6 51.8-2.5 7.3-8 19.5-17 19.6-.7 0-1.5-.2-2.7-1.6-10.2-12-7.3-64.3-1.2-112.3 39.3 1.5 84.7.5 135-6 3.2-.5 5.6-3.6 5-7-.3-3.3-3.4-5.6-6.7-5.2-48.8 6.4-93 7.4-131.5 6 1-7.7 2.2-15.2 3.4-22.3l2.2-13.6c.6-3.4-1.7-6.5-5-7-3.3-.7-6.4 1.5-7 4.8L350 27c-1.6 8.7-3.2 17-4.8 24.7l-18.5-1 .6-5.2c2.2-23.6 0-36-7.4-40.7-3.4-2-7-1.8-9.5-1-4.3.7-13.3 5.3-25.4 43l-32.8-4.2c-10-1.3-18.8-2.4-26.2-3.2-49.3-5-59.3 27.3-59.7 28.7-1 3.3 1 6.7 4.2 7.7l1.7.2c2.6 0 5-1.8 6-4.5 0-.2 7.3-24 46.5-20 7.3.8 16 2 26 3.3 9 1 19.5 2.5 30.8 3.8-7.6 27-12.3 55.8-12.7 78v.2c-8.4-.5-16.2-10-21.7-19 .6-8.5.5-15.8.4-20-.4-12.3-.7-19-7.5-19-3.5 0-6.2 2.7-6.2 6 0 1 .2 1.8.5 2.5 1.4 7.6 3.6 58-13 80.7-4.8 6.5-10.5 9.8-17.5 10.3-3 .2-11.6.8-17-11.5 12.8-21 20-51.3 20-68.3 0-17.2-7.4-19.8-11.8-19.8-5 0-9.6 3.6-13.5 10.7-5.4 10-9.5 26-10.7 42.4-.6 8-.8 21.4 2.5 33.3-6 8.6-12.3 13.3-18 13.3-2.8 0-4.8-1-6.6-3.2-8.4-10.5-6.3-42.6-2-69 3.3-11 4-20 4-20.6.3-3.2-2-6-5-6.6-3.2-.5-6.2 1.5-7 4.7-.5 2.2-2.2 9.6-4 19.6-3 10.8-8.7 23.5-18.7 31-3.6 2.8-7.5 4.7-11.8 5.7 3.3-6.7 6.4-14.2 9.2-22.8 16.6-51 3.3-87.3-14.7-104.4C86.5 1 71.2-3 57.7 2.2 43 8 31.7 29.6 28.4 55.4c-10.7 11-19 28-24.4 50.8-7 30-4.8 52.6 7 67 11.8 14.6 29 15 31.6 15 3.2.2 31 0 54-35.3 10-.3 19-3.3 26.8-9.2 2.8-2 5.3-4.5 7.5-7-1 18.2.5 36.3 8 46 4.2 5 9.7 7.7 16.2 7.7 9 0 17-5 23.7-12.7 5.5 8.4 13.5 12.8 23.3 12.8h2.3c12.2-1 28.6-8.2 37.2-38.6 1.5-5.3 2.6-10.7 3.4-16 7.7 8.6 15.7 13 24 13 2.2 30.4 14.8 37.8 25.6 38.2 3.6.4 13.8-1 26.4-21.6 6.3-10.5 12.4-24.4 18-41.6-.8 27 1.2 51 9.3 60.7 3.3 4 7.5 6 12.2 6 24.2 0 35.3-37.5 35.2-72.3 0-2 0-4-.2-6.4 10 2.3 18 4.2 13.5 47.7-.5 4.5-1.7 20 4.6 27 2 2.6 5 4 8.2 4 9.3 0 16.5-7.6 22-18.6 2.8 11.4 8 18 15.5 20 1.6.5 3.2.7 4.8.7 12.8 0 27-12.8 36-23 2.7 12.8 8 20.2 16.2 22.4 1.5.5 3 .7 4.7.7 15.5 0 32.8-18.7 41-28.8 10.8 7.3 31 13 55.8-1.4 3-1.7 3.8-5.5 2-8.4" fill="#000" fill-rule="evenodd"/></svg>