<?xml version="1.0" encoding="UTF-8"?>
<svg width="622px" height="193px" viewBox="0 0 622 193" version="1.1" xmlns="http://www.w3.org/2000/svg" xmlns:xlink="http://www.w3.org/1999/xlink">
    <!-- Generator: Sketch 44.1 (41455) - http://www.bohemiancoding.com/sketch -->
    <title>owltree_logo</title>
    <desc>Created with Sketch.</desc>
    <defs></defs>
    <g id="Page-1" stroke="none" stroke-width="1" fill="none" fill-rule="evenodd">
        <g id="owltree_logo" fill="#ffffff">
            <path d="M524.815286,100.886032 C525.108286,100.500032 525.311286,100.221032 525.423286,100.056032 C529.024286,94.703032 537.438286,90.213032 540.447286,91.208032 C541.275286,91.483032 542.014286,93.793032 541.823286,97.676032 C540.579286,122.931032 525.214286,148.367032 518.739286,148.367032 L518.735286,148.367032 C512.313286,148.358032 511.765286,140.812032 511.719286,139.283032 C511.706286,138.513032 511.548286,137.780032 511.275286,137.106032 C513.290286,118.912032 520.108286,107.087032 524.815286,100.886032 M455.623286,129.187032 C455.623286,129.182032 455.622286,129.177032 455.623286,129.172032 C458.441286,115.423032 463.924286,106.133032 467.905286,100.886032 C468.198286,100.500032 468.401286,100.221032 468.513286,100.056032 C472.112286,94.703032 480.538286,90.213032 483.538286,91.208032 C484.365286,91.483032 485.104286,93.793032 484.913286,97.676032 C483.669286,122.931032 468.304286,148.367032 461.829286,148.367032 L461.825286,148.367032 C455.405286,148.358032 454.857286,140.815032 454.812286,139.284032 C454.800286,138.631032 454.666286,138.012032 454.464286,137.426032 C454.918286,134.658032 455.305286,131.900032 455.623286,129.187032 M295.639286,174.998032 C295.585286,174.996032 295.531286,174.993032 295.477286,174.992032 C293.303286,174.928032 286.682286,174.733032 283.163286,160.263032 C282.127286,156.010032 281.487286,151.247032 281.184286,146.114032 C303.445286,134.564032 318.448286,91.846032 324.525286,62.694032 C330.407286,63.129032 336.447286,63.526032 342.677286,63.861032 C319.811286,168.677032 297.101286,174.727032 295.639286,174.998032 M294.117286,59.976032 C299.925286,60.582032 305.977286,61.164032 312.245286,61.708032 C306.836286,86.685032 295.036286,118.655032 281.144286,131.339032 C282.176286,108.630032 287.725286,81.980032 294.117286,59.976032 M312.768286,16.054032 C313.119286,16.009032 313.465286,15.934032 313.802286,15.828032 C314.787286,17.738032 316.957286,24.414032 315.072286,44.381032 C314.916286,46.030032 314.703286,47.781032 314.445286,49.607032 C308.706286,49.116032 303.167286,48.590032 297.812286,48.043032 C303.460286,30.935032 309.219286,18.443032 312.768286,16.054032 M182.823286,147.657032 C181.366286,124.781032 188.730286,98.731032 194.103286,92.217032 C196.004286,100.234032 192.555286,125.205032 182.823286,147.657032 M90.082286,140.229032 C89.072286,140.095032 88.046286,139.927032 87.001286,139.727032 C48.847286,132.389032 41.549286,95.018032 40.182286,79.292032 C39.646286,73.114032 39.642286,67.101032 40.076286,61.375032 C42.677286,59.200032 45.415286,57.481032 48.281286,56.236032 C63.174286,49.760032 77.545286,57.766032 77.663286,57.835032 C80.590286,59.535032 84.331286,58.546032 86.035286,55.624032 C87.735286,52.702032 86.746286,48.953032 83.825286,47.252032 C83.033286,46.792032 64.206286,36.077032 43.586286,44.926032 C43.235286,45.076032 42.890286,45.230032 42.543286,45.389032 C46.511286,28.768032 54.198286,16.671032 62.094286,13.669032 C71.205286,10.205032 81.465286,13.033032 90.260286,21.421032 C113.617286,43.700032 111.072286,84.713032 101.795286,113.065032 C98.261286,123.866032 94.276286,132.814032 90.082286,140.229032 M42.980286,176.018032 C42.870286,176.012032 42.758286,176.009032 42.649286,176.009032 C42.591286,176.009032 42.533286,176.010032 42.475286,176.011032 C42.360286,176.038032 29.213286,176.252032 20.402286,165.425032 C11.376286,154.332032 9.83728598,134.840032 15.954286,109.057032 C18.999286,96.223032 22.963286,85.451032 27.736286,76.926032 C27.802286,78.067032 27.883286,79.209032 27.983286,80.352032 C31.267286,118.132032 51.717286,144.532032 82.838286,151.370032 C64.057286,176.384032 44.070286,176.056032 42.980286,176.018032 M620.326286,154.194032 C618.612286,151.277032 614.859286,150.302032 611.946286,152.017032 C583.445286,168.770032 566.658286,151.652032 565.987286,150.947032 C564.749286,149.605032 562.993286,148.891032 561.150286,148.985032 C559.326286,149.086032 557.642286,149.996032 556.558286,151.465032 C546.940286,164.511032 528.659286,182.697032 519.902286,180.290032 C515.665286,179.123032 512.531286,171.436032 511.277286,159.174032 C513.419286,160.082032 515.889286,160.608032 518.719286,160.612032 L518.731286,160.612032 C537.139286,160.612032 552.845286,122.807032 554.051286,98.278032 C554.703286,85.048032 548.226286,80.890032 544.306286,79.589032 C533.849286,76.117032 520.494286,85.445032 515.313286,93.148032 L515.062286,93.484032 C508.129286,102.620032 497.281286,122.056032 498.571286,152.900032 C488.705286,165.802032 471.413286,182.604032 462.990286,180.290032 C458.756286,179.121032 455.621286,171.435032 454.367286,159.174032 C456.509286,160.082032 458.979286,160.608032 461.809286,160.612032 L461.827286,160.612032 C480.229286,160.612032 495.936286,122.807032 497.141286,98.278032 C497.793286,85.048032 491.316286,80.890032 487.396286,79.589032 C476.941286,76.117032 463.584286,85.445032 458.403286,93.148032 L458.152286,93.484032 C452.471286,100.970032 444.172286,115.386032 442.062286,137.309032 C437.541286,163.349032 428.541286,177.523032 422.741286,178.323032 C421.316286,176.063032 420.715286,168.046032 421.520286,160.969032 C426.540286,110.432032 415.122286,103.835032 398.446286,100.032032 L396.772286,99.645032 C396.002286,99.464032 395.219286,99.222032 394.430286,98.932032 C392.535286,88.201032 388.399286,78.737032 379.714286,78.737032 C369.331286,78.737032 367.521286,84.622032 367.226286,87.153032 C366.395286,94.268032 374.578286,102.016032 383.056286,106.937032 C384.425286,120.973032 383.594286,141.515032 377.647286,158.759032 C375.124286,166.072032 369.564286,178.342032 360.656286,178.359032 L360.648286,178.359032 C359.906286,178.359032 359.063286,178.172032 357.943286,176.830032 C347.817286,164.710032 350.712286,112.480032 356.820286,64.505032 C396.112286,65.983032 441.515286,65.001032 491.655286,58.428032 C495.009286,57.988032 497.370286,54.914032 496.930286,51.561032 C496.490286,48.209032 493.401286,45.853032 490.064286,46.287032 C441.249286,52.687032 396.923286,53.704032 358.451286,52.311032 C359.536286,44.582032 360.683286,37.065032 361.854286,29.972032 C362.651286,25.524032 363.438286,20.990032 364.215286,16.362032 C364.771286,13.044032 362.547286,9.898032 359.233286,9.317032 C355.945286,8.738032 352.760286,10.936032 352.154286,14.248032 C351.771286,16.341032 350.978286,20.769032 349.964286,26.902032 C348.395286,35.686032 346.817286,43.950032 345.236286,51.724032 C338.864286,51.395032 332.673286,51.006032 326.663286,50.570032 C326.913286,48.772032 327.114286,47.084032 327.260286,45.533032 C329.492286,21.909032 327.232286,9.356032 319.932286,4.830032 C316.598286,2.758032 313.059286,2.961032 310.474286,3.939032 C306.195286,4.503032 297.153286,9.131032 285.115286,46.677032 C272.939286,45.299032 261.923286,43.874032 252.197286,42.614032 C242.115286,41.308032 233.408286,40.180032 225.972286,39.426032 C176.743286,34.445032 166.702286,66.694032 166.300286,68.071032 C165.349286,71.315032 167.207286,74.717032 170.451286,75.669032 C171.027286,75.838032 171.607286,75.919032 172.177286,75.919032 C174.826286,75.919032 177.267286,74.187032 178.050286,71.518032 C178.118286,71.280032 185.526286,47.637032 224.738286,51.609032 C232.003286,52.344032 240.632286,53.462032 250.622286,54.757032 C259.819286,55.948032 270.156286,57.285032 281.527286,58.593032 C273.866286,85.729032 269.162286,114.430032 268.840286,136.492032 C268.838286,136.597032 268.836286,136.704032 268.836286,136.809032 C260.429286,136.273032 252.575286,126.669032 247.087286,117.854032 C247.587286,109.250032 247.503286,102.012032 247.362286,97.798032 C246.953286,85.507032 246.728286,78.737032 239.922286,78.737032 C236.540286,78.737032 233.800286,81.478032 233.800286,84.859032 C233.800286,85.738032 233.986286,86.573032 234.318286,87.329032 C235.731286,94.933032 237.890286,145.309032 221.257286,167.990032 C216.508286,174.469032 210.798286,177.844032 203.803286,178.310032 C200.750286,178.511032 192.184286,179.085032 186.871286,166.809032 C199.620286,145.657032 206.758286,115.487032 206.758286,98.456032 C206.758286,81.299032 199.408286,78.737032 195.026286,78.737032 C189.950286,78.737032 185.402286,82.338032 181.510286,89.441032 C176.113286,99.286032 172.006286,115.526032 170.790286,131.823032 C170.184286,139.946032 169.977286,153.185032 173.323286,165.081032 C167.316286,173.596032 160.983286,178.296032 155.231286,178.296032 C152.475286,178.296032 150.468286,177.315032 148.726286,175.112032 C140.310286,164.480032 142.355286,132.391032 146.735286,105.954032 C149.954286,94.930032 150.727286,86.118032 150.789286,85.355032 C151.048286,82.163032 148.804286,79.311032 145.641286,78.811032 C142.470286,78.303032 139.463286,80.334032 138.728286,83.451032 C138.194286,85.713032 136.496286,93.138032 134.794286,103.086032 C131.623286,113.773032 125.951286,126.503032 116.000286,134.049032 C112.397286,136.781032 108.485286,138.657032 104.212286,139.687032 C107.513286,133.032032 110.620286,125.472032 113.434286,116.873032 C130.029286,66.148032 116.710286,29.730032 98.712286,12.561032 C86.547286,0.958032005 71.229286,-2.903968 57.741286,2.223032 C42.864286,7.880032 31.570286,29.608032 28.419286,55.418032 C17.656286,66.263032 9.48728598,83.266032 4.04028598,106.231032 C-3.08671402,136.280032 -0.776714024,158.795032 10.906286,173.152032 C22.849286,187.831032 40.108286,188.238032 42.569286,188.255032 C45.841286,188.371032 73.695286,188.107032 96.717286,152.862032 C106.723286,152.711032 115.678286,149.673032 123.436286,143.777032 C126.182286,141.690032 128.655286,139.331032 130.886286,136.786032 C129.977286,154.967032 131.493286,173.068032 139.122286,182.709032 C143.176286,187.832032 148.746286,190.541032 155.231286,190.541032 C164.155286,190.541032 172.103286,185.585032 178.929286,177.825032 C184.465286,186.219032 192.515286,190.604032 202.336286,190.603032 C203.085286,190.603032 203.847286,190.579032 204.616286,190.527032 C216.834286,189.714032 233.204286,182.363032 241.794286,151.966032 C243.280286,146.706032 244.390286,141.275032 245.214286,135.940032 C252.899286,144.639032 260.912286,149.066032 269.177286,149.117032 C271.429286,179.442032 283.960286,186.790032 294.849286,187.221032 C298.375286,187.551032 308.634286,186.338032 321.200286,165.567032 C327.539286,155.084032 333.582286,141.212032 339.302286,124.032032 C338.433286,151.028032 340.410286,174.941032 348.547286,184.682032 C351.785286,188.556032 355.968286,190.603032 360.650286,190.603032 L360.680286,190.603032 C384.946286,190.558032 395.960286,153.153032 395.929286,118.419032 C395.927286,116.427032 395.887286,114.255032 395.785286,111.985032 C405.786286,114.265032 413.668286,116.154032 409.345286,159.661032 C408.817286,164.246032 407.575286,179.755032 413.857286,186.803032 C416.073286,189.289032 418.967286,190.603032 422.229286,190.603032 C431.458286,190.603032 438.723286,183.064032 444.162286,172.112032 C447.007286,183.421032 452.148286,190.003032 459.740286,192.095032 C461.287286,192.522032 462.861286,192.719032 464.459286,192.719032 C477.308286,192.717032 491.385286,179.877032 500.512286,169.723032 C503.215286,182.508032 508.536286,189.859032 516.650286,192.095032 C518.196286,192.522032 519.771286,192.719032 521.369286,192.719032 C536.888286,192.716032 554.211286,173.978032 562.419286,163.875032 C573.229286,171.303032 593.437286,177.100032 618.152286,162.574032 C621.065286,160.860032 622.040286,157.108032 620.326286,154.194032" id="owltree"></path>
        </g>
    </g>
</svg>