<?xml version="1.0" encoding="UTF-8"?>
<svg width="622px" height="264px" viewBox="0 0 622 264" version="1.1" xmlns="http://www.w3.org/2000/svg" xmlns:xlink="http://www.w3.org/1999/xlink">
    <!-- Generator: Sketch 44.1 (41455) - http://www.bohemiancoding.com/sketch -->
    <title>owltree_logo_claim</title>
    <desc>Created with Sketch.</desc>
    <defs></defs>
    <g id="Page-1" stroke="none" stroke-width="1" fill="none" fill-rule="evenodd">
        <g id="owltree_logo_claim" fill="#000000">
            <g id="vegan-apparel" transform="translate(97.000000, 225.000000)">
                <path d="M6.7837,2.6374 C7.4317,4.5204 8.0347,6.3844 8.5887,8.2304 C9.1417,10.0774 9.6607,11.9414 10.1417,13.8244 C10.6227,15.7074 11.1417,17.5804 11.6947,19.4444 C12.2487,21.3094 12.8517,23.1834 13.4997,25.0664 L14.0337,23.5584 C14.1377,23.2284 14.2577,22.8774 14.3957,22.5024 C14.5307,22.1284 14.6817,21.7304 14.8487,21.3094 C15.4367,19.8114 15.9267,18.3394 16.3227,16.8954 C16.7227,15.4524 17.0867,14.0164 17.4237,12.5894 C18.0707,9.7754 18.8757,6.9064 19.8377,3.9804 C20.7187,1.2944 22.1397,0.1784 24.1077,0.6344 C26.0727,1.1114 27.1417,1.7964 27.3087,2.6924 C27.3087,2.7104 27.1827,3.1584 26.9317,4.0354 L26.0857,6.9964 L25.2367,10.1224 C25.1107,10.5984 25.0137,10.9824 24.9377,11.2734 C24.8657,11.5664 24.8187,11.7584 24.7997,11.8494 C24.3157,13.9524 23.7877,16.0174 23.2117,18.0464 C22.6367,20.0754 21.9947,22.0874 21.2847,24.0784 C20.5707,26.0714 19.8667,28.0684 19.1657,30.0704 C18.4637,32.0714 17.7567,34.1244 17.0457,36.2254 C16.6907,37.2314 15.7697,37.8264 14.2857,38.0084 C11.9397,38.3374 10.5067,37.7514 9.9847,36.2534 C9.3777,34.4804 8.7617,32.7384 8.1327,31.0304 C7.5067,29.3214 6.8877,27.5794 6.2807,25.8064 C5.8217,24.4904 5.4037,23.2104 5.0257,21.9674 C4.6487,20.7244 4.3247,19.5184 4.0547,18.3484 L2.2967,10.8634 C2.1497,10.2784 1.9767,9.6794 1.7787,9.0664 C1.5797,8.4544 1.3667,7.8294 1.1337,7.1894 C0.9037,6.5314 0.7057,5.9054 0.5397,5.3104 C0.3697,4.7164 0.2347,4.1554 0.1307,3.6234 C-0.0773,2.2354 0.6657,1.3214 2.3597,0.8824 C4.1177,0.4444 5.5917,1.0294 6.7837,2.6374" id="Fill-4"></path>
                <path d="M48.9623,17.0329 C50.4903,16.9779 52.0343,16.9459 53.5903,16.9369 C55.1503,16.9269 56.7253,16.9329 58.3163,16.9509 C60.4923,16.9509 61.5793,17.9089 61.5793,19.8289 C61.5793,21.7299 60.4793,22.6809 58.2843,22.6809 C56.7563,22.6629 55.2283,22.6569 53.7003,22.6669 C52.1753,22.6769 50.6473,22.7079 49.1193,22.7629 C48.1793,22.7999 47.3053,22.8319 46.5003,22.8589 C45.6923,22.8869 44.9343,22.9179 44.2243,22.9549 C42.8843,23.0099 42.2153,23.8039 42.2153,25.3399 C42.2153,25.9259 42.2213,26.4739 42.2303,26.9849 C42.2403,27.4979 42.2563,27.9999 42.2783,28.4929 C42.3003,28.9879 42.3253,29.4899 42.3563,30.0009 C42.3883,30.5139 42.4133,31.0529 42.4353,31.6189 C42.4763,31.9849 42.9063,32.2319 43.7213,32.3599 C44.2433,32.4519 44.8243,32.5149 45.4633,32.5519 C46.1013,32.5889 46.8083,32.5889 47.5823,32.5519 C48.3773,32.5149 49.0343,32.4829 49.5593,32.4559 C50.0813,32.4279 50.4903,32.4149 50.7823,32.4149 C52.3513,32.4319 53.9273,32.4459 55.5053,32.4559 C57.0863,32.4649 58.6593,32.4699 60.2313,32.4699 C62.4253,32.4699 63.5263,33.4199 63.5263,35.3209 C63.5263,37.2409 62.4253,38.1999 60.2313,38.1999 C58.5993,38.1999 56.9953,38.1909 55.4263,38.1719 C53.8573,38.1539 52.2883,38.1449 50.7203,38.1449 C49.0033,38.1269 47.2923,38.1129 45.5883,38.1039 C43.8843,38.0949 42.1833,38.0899 40.4893,38.0899 C39.9853,38.2369 39.5893,38.3099 39.2973,38.3099 C37.1213,38.3469 36.0113,37.4039 35.9703,35.4859 L35.9703,34.6079 C35.9703,34.2979 35.9583,33.9779 35.9393,33.6479 C35.9393,33.3749 35.9333,33.0819 35.9233,32.7719 C35.9113,32.4599 35.8953,32.1399 35.8763,31.8119 C35.7913,29.5449 35.7223,27.2639 35.6723,24.9699 C35.6183,22.6769 35.5843,20.2589 35.5623,17.7179 C35.5213,13.1119 35.5523,8.4229 35.6563,3.6509 C35.6973,1.7499 36.7973,0.8089 38.9513,0.8269 C39.0333,0.8269 39.1243,0.8329 39.2183,0.8409 C39.3133,0.8509 39.4233,0.8639 39.5483,0.8819 L44.4123,0.9649 C46.9433,1.0019 49.4653,1.0369 51.9743,1.0749 C54.4863,1.1119 57.0083,1.1119 59.5393,1.0749 C61.7153,1.0569 62.8253,2.0069 62.8653,3.9259 C62.8653,5.8089 61.7783,6.7689 59.6023,6.8049 C56.9643,6.8419 54.3863,6.8419 51.8643,6.8049 C49.3423,6.7689 46.8183,6.7219 44.2873,6.6669 C42.6963,6.6319 41.9223,7.5639 41.9633,9.4649 C41.9853,10.4159 42.0043,11.3619 42.0263,12.3029 C42.0483,13.2439 42.0793,14.2079 42.1203,15.1949 C42.1833,16.6579 42.8443,17.3429 44.0983,17.2509 C44.7463,17.2159 45.4693,17.1789 46.2643,17.1419 C47.0603,17.1059 47.9593,17.0689 48.9623,17.0329" id="Fill-6"></path>
                <path d="M97.2941,6.5312 C98.7591,7.9752 98.6431,9.3272 96.9481,10.5882 C95.3161,11.8132 93.7791,11.7132 92.3361,10.2872 C92.0431,9.9952 91.7511,9.7202 91.4581,9.4652 C91.1631,9.2082 90.8611,8.9522 90.5471,8.6972 C90.2761,8.4952 90.0091,8.2952 89.7481,8.0932 C89.4841,7.8922 89.2071,7.7092 88.9151,7.5452 C86.6541,6.2292 84.6171,6.1922 82.7961,7.4352 C80.8061,8.7882 79.2691,11.0552 78.1811,14.2352 C77.0301,17.5992 76.6871,20.8982 77.1461,24.1342 C77.4611,26.3642 78.2251,28.3102 79.4381,29.9742 C80.6521,31.6192 82.4101,32.5792 84.7111,32.8522 C86.1321,33.0362 87.4501,32.8172 88.6631,32.1942 C89.5001,31.7932 90.2451,31.1812 90.8931,30.3582 C91.4581,29.6272 91.8231,28.7862 91.9901,27.8352 C92.0341,27.6152 92.0591,27.3832 92.0681,27.1362 C92.0811,26.8892 92.0651,26.6202 92.0211,26.3272 C91.8331,24.9932 91.0371,24.3632 89.6381,24.4362 C88.2771,24.5262 86.8241,24.5262 85.2741,24.4362 C83.1201,24.3262 82.0731,23.3382 82.1361,21.4742 C82.2401,19.5742 83.3811,18.6492 85.5571,18.7042 C86.9371,18.7592 88.8831,18.7872 91.3961,18.7872 C93.9901,18.7872 95.6211,19.3352 96.2911,20.4322 L96.9201,21.4472 C97.6081,22.5622 98.0961,23.7092 98.3791,24.8882 C98.6591,26.0662 98.7061,27.2972 98.5201,28.5752 C98.3941,29.4712 98.1461,30.3312 97.7811,31.1532 C97.4131,31.9762 96.9481,32.7712 96.3851,33.5382 C95.1941,35.0932 93.7071,36.3082 91.9271,37.1862 C90.7131,37.7712 89.4371,38.1582 88.1011,38.3502 C86.7611,38.5432 85.3371,38.5652 83.8311,38.4192 C79.7311,37.9992 76.6341,36.5002 74.5431,33.9222 C72.3861,31.2892 71.0911,28.2652 70.6511,24.8462 C70.1471,20.6242 70.5661,16.5382 71.9051,12.5892 C72.6161,10.5432 73.5431,8.6872 74.6811,7.0242 C75.8231,5.3612 77.1781,3.9902 78.7471,2.9112 C79.7091,2.2532 80.7311,1.7362 81.8061,1.3612 C82.8841,0.9882 84.0041,0.7772 85.1641,0.7312 C86.3271,0.6852 87.5191,0.8272 88.7421,1.1572 C89.9681,1.4852 91.2261,2.0252 92.5241,2.7752 C92.9651,3.0302 93.3891,3.2952 93.7951,3.5702 C94.2031,3.8432 94.5961,4.1362 94.9741,4.4462 C95.3921,4.7942 95.7941,5.1372 96.1811,5.4752 C96.5681,5.8132 96.9391,6.1642 97.2941,6.5312" id="Fill-8"></path>
                <path d="M124.035,25.5869 C124.013,25.5689 124.004,25.5239 124.004,25.4499 C123.667,24.2259 123.312,22.9969 122.938,21.7619 C122.56,20.5279 122.142,19.2539 121.68,17.9369 C121.535,17.5539 121.394,17.1789 121.256,16.8129 C121.12,16.4479 120.991,16.0729 120.866,15.6879 C120.488,14.6469 120.089,14.4999 119.671,15.2499 C119.463,15.6159 119.265,16.0729 119.077,16.6209 C118.888,17.1689 118.699,17.7909 118.511,18.4859 C118.322,19.1809 118.146,19.8839 117.976,20.5969 C117.81,21.3099 117.652,22.0319 117.508,22.7629 C117.36,23.4939 117.244,24.0889 117.162,24.5459 C117.077,25.0019 117.014,25.3219 116.973,25.5049 C116.91,25.7419 118.102,25.9519 120.551,26.1349 C122.997,26.3369 124.161,26.1539 124.035,25.5869 M113.647,36.4459 C112.474,37.9809 110.99,38.5649 109.192,38.1999 C107.453,37.8159 106.72,36.9019 106.994,35.4579 C107.098,34.9279 107.233,34.3699 107.402,33.7849 C107.569,33.1999 107.767,32.5889 107.997,31.9489 C108.459,30.7239 108.833,29.4989 109.129,28.2749 C109.462,26.9579 109.776,25.6869 110.069,24.4629 C110.361,23.2379 110.644,22.0499 110.918,20.8979 C111.188,19.6919 111.506,18.4759 111.873,17.2509 C112.238,16.0279 112.653,14.7569 113.112,13.4399 C113.719,11.7229 114.342,9.9269 114.98,8.0529 C115.618,6.1779 116.241,4.3559 116.848,2.5829 C117.351,1.1389 118.772,0.5619 121.117,0.8549 C122.642,1.0739 123.563,1.6689 123.878,2.6379 C124.588,4.7029 125.299,6.7549 126.013,8.7929 C126.723,10.8319 127.418,12.8779 128.097,14.9339 C128.78,16.9919 129.418,19.0479 130.012,21.1039 C130.609,23.1599 131.147,25.2309 131.628,27.3149 C131.65,27.4069 131.691,27.6019 131.754,27.9039 C131.817,28.2059 131.924,28.5949 132.068,29.0689 L132.949,32.1399 L133.794,35.0739 L134.172,36.3909 C134.005,37.3219 132.936,37.9899 130.971,38.3919 C128.962,38.7749 127.528,37.6889 126.67,35.1289 C126.418,34.3429 126.179,33.5609 125.95,32.7839 C125.717,32.0079 125.5,31.2359 125.29,30.4679 L122.906,30.4679 L120.394,30.4679 C119.558,30.4679 118.725,30.4589 117.898,30.4409 C117.071,30.4229 116.304,30.3959 115.593,30.3579 C115.279,31.3999 114.964,32.4279 114.65,33.4429 C114.338,34.4569 114.002,35.4579 113.647,36.4459" id="Fill-11"></path>
                <path d="M149.7384,35.2933 C149.7384,37.1763 148.6414,38.1173 146.4434,38.1173 C144.2454,38.0813 143.1574,37.1213 143.1794,35.2383 C143.1984,32.8073 143.1894,30.4363 143.1484,28.1233 C143.1044,25.8103 143.0544,23.4483 142.9914,21.0353 C142.8654,17.0683 142.8024,13.0293 142.8024,8.9153 L142.8024,6.9143 C142.8024,6.2563 142.8084,5.6633 142.8184,5.1313 C142.8274,4.6033 142.8744,4.1223 142.9594,3.6923 C143.0414,3.2633 143.1824,2.8753 143.3844,2.5273 C143.5824,2.1803 143.8584,1.8693 144.2144,1.5953 C145.5944,0.5543 146.8834,0.3793 148.0754,1.0743 C149.2884,1.7503 150.8984,3.1033 152.9074,5.1313 C153.3254,5.5533 153.8664,6.2333 154.5234,7.1753 C155.1844,8.1163 155.9824,9.3373 156.9264,10.8353 C157.8664,12.3343 158.8254,13.8653 159.7964,15.4283 C160.7684,16.9913 161.7584,18.6043 162.7614,20.2673 L164.2044,22.6533 C164.2894,22.7263 164.2994,21.8853 164.2364,20.1303 C164.1134,17.4063 164.0344,14.6843 164.0034,11.9593 C163.9724,9.2353 164.0384,6.3763 164.2044,3.3773 C164.2894,1.4773 165.4304,0.5623 167.6254,0.6353 C169.8044,0.7273 170.8484,1.7223 170.7664,3.6233 C170.5774,7.3523 170.5244,10.9453 170.6094,14.4003 C170.6914,17.8543 170.8164,21.3103 170.9864,24.7643 C171.0684,26.4823 171.1464,28.2143 171.2194,29.9603 C171.2944,31.7053 171.3514,33.5203 171.3924,35.4033 C171.4554,37.3223 170.3764,38.2913 168.1604,38.3093 C166.3394,38.3283 165.2514,37.5693 164.8964,36.0333 C164.6444,35.6863 164.3304,35.2243 163.9564,34.6493 C163.5794,34.0733 163.1294,33.3473 162.6044,32.4693 L159.2144,26.7663 C159.0704,26.5293 158.8284,26.1033 158.4944,25.4903 C158.1584,24.8783 157.7214,24.0513 157.1774,23.0103 C156.6304,21.9673 156.0834,20.9443 155.5304,19.9393 C154.9734,18.9333 154.4044,17.9363 153.8194,16.9503 C153.2314,15.9453 152.6814,15.0573 152.1724,14.2903 C151.6564,13.5223 151.1724,12.8563 150.7104,12.2893 C150.2504,11.7233 149.9144,11.4803 149.7074,11.5623 C149.4964,11.6443 149.3924,12.0333 149.3924,12.7273 C149.4144,14.0973 149.4334,15.4653 149.4554,16.8273 C149.4774,18.1883 149.5084,19.5543 149.5494,20.9253 C149.6124,23.3573 149.6664,25.7383 149.7074,28.0683 C149.7474,30.3993 149.7574,32.8073 149.7384,35.2933" id="Fill-13"></path>
                <path d="M216.6488,25.5869 C216.6268,25.5689 216.6178,25.5239 216.6178,25.4499 C216.2808,24.2259 215.9258,22.9969 215.5518,21.7619 C215.1738,20.5279 214.7558,19.2539 214.2938,17.9369 C214.1488,17.5539 214.0078,17.1789 213.8698,16.8129 C213.7338,16.4479 213.6048,16.0729 213.4798,15.6879 C213.1018,14.6469 212.7028,14.4999 212.2848,15.2499 C212.0768,15.6159 211.8788,16.0729 211.6908,16.6209 C211.5018,17.1689 211.3128,17.7909 211.1248,18.4859 C210.9358,19.1809 210.7598,19.8839 210.5898,20.5969 C210.4238,21.3099 210.2658,22.0319 210.1218,22.7629 C209.9738,23.4939 209.8578,24.0889 209.7758,24.5459 C209.6908,25.0019 209.6278,25.3219 209.5868,25.5049 C209.5238,25.7419 210.7158,25.9519 213.1648,26.1349 C215.6108,26.3369 216.7748,26.1539 216.6488,25.5869 M206.2608,36.4459 C205.0878,37.9809 203.6038,38.5649 201.8058,38.1999 C200.0668,37.8159 199.3338,36.9019 199.6078,35.4579 C199.7118,34.9279 199.8468,34.3699 200.0158,33.7849 C200.1828,33.1999 200.3808,32.5889 200.6108,31.9489 C201.0728,30.7239 201.4468,29.4989 201.7428,28.2749 C202.0758,26.9579 202.3898,25.6869 202.6828,24.4629 C202.9748,23.2379 203.2578,22.0499 203.5318,20.8979 C203.8018,19.6919 204.1198,18.4759 204.4868,17.2509 C204.8518,16.0279 205.2668,14.7569 205.7258,13.4399 C206.3328,11.7229 206.9558,9.9269 207.5938,8.0529 C208.2318,6.1779 208.8548,4.3559 209.4618,2.5829 C209.9648,1.1389 211.3858,0.5619 213.7308,0.8549 C215.2558,1.0739 216.1768,1.6689 216.4918,2.6379 C217.2018,4.7029 217.9128,6.7549 218.6268,8.7929 C219.3368,10.8319 220.0318,12.8779 220.7108,14.9339 C221.3938,16.9919 222.0318,19.0479 222.6258,21.1039 C223.2228,23.1599 223.7608,25.2309 224.2418,27.3149 C224.2638,27.4069 224.3048,27.6019 224.3678,27.9039 C224.4308,28.2059 224.5378,28.5949 224.6818,29.0689 L225.5628,32.1399 L226.4078,35.0739 L226.7858,36.3909 C226.6188,37.3219 225.5498,37.9899 223.5848,38.3919 C221.5758,38.7749 220.1418,37.6889 219.2838,35.1289 C219.0318,34.3429 218.7928,33.5609 218.5638,32.7839 C218.3308,32.0079 218.1138,31.2359 217.9038,30.4679 L215.5198,30.4679 L213.0078,30.4679 C212.1718,30.4679 211.3388,30.4589 210.5118,30.4409 C209.6848,30.4229 208.9178,30.3959 208.2068,30.3579 C207.8928,31.3999 207.5778,32.4279 207.2638,33.4429 C206.9518,34.4569 206.6158,35.4579 206.2608,36.4459" id="Fill-15"></path>
                <path d="M242.6037,14.3999 C243.2927,14.4729 244.0407,14.5509 244.8457,14.6329 C245.6537,14.7159 246.5247,14.8119 247.4677,14.9209 C249.3287,15.1219 250.7407,14.6379 251.7027,13.4669 C252.7497,11.0559 252.6337,9.2549 251.3597,8.0669 C250.0617,6.8419 248.0527,6.3759 245.3327,6.6669 C243.5127,6.8869 242.3927,7.2069 241.9747,7.6269 C241.5567,8.0479 241.3997,9.1629 241.5037,10.9729 C241.5257,11.3009 241.5407,11.6269 241.5507,11.9459 C241.5627,12.2659 241.5947,12.5679 241.6447,12.8509 C241.6977,13.1349 241.7987,13.4079 241.9437,13.6729 C242.0917,13.9389 242.3117,14.1799 242.6037,14.3999 M241.8177,21.0629 C241.8177,21.2829 241.8307,21.6789 241.8487,22.2559 C241.8707,22.8319 241.9117,23.5859 241.9747,24.5179 C242.0157,25.4499 242.0597,26.3999 242.1007,27.3699 C242.1417,28.3379 242.1727,29.3429 242.1947,30.3859 C242.2167,32.4319 242.1537,34.2779 242.0067,35.9239 C241.8397,37.5879 241.5037,38.4019 241.0037,38.3649 C239.9967,38.3289 239.1927,38.2919 238.5857,38.2549 C237.9787,38.2189 237.5697,38.1539 237.3627,38.0619 C236.1267,37.5139 235.4977,36.5539 235.4787,35.1839 L235.3847,31.5369 C235.2997,28.1199 235.2807,24.7639 235.3217,21.4749 C235.3627,18.1839 235.3847,14.8299 235.3847,11.4109 L235.3847,10.4239 C235.3847,9.3099 235.4067,8.2029 235.4477,7.1069 C235.4887,6.0089 235.4887,4.9039 235.4477,3.7879 C235.4067,2.7829 235.6297,2.0289 236.1237,1.5259 C236.6137,1.0239 237.4347,0.7639 238.5857,0.7449 C239.7767,0.7269 240.8307,0.7129 241.7387,0.7039 C242.6507,0.6949 243.4497,0.6899 244.1407,0.6899 C245.3547,0.6899 247.1127,0.6619 249.4137,0.6079 C251.7157,0.5169 253.4827,0.7639 254.7177,1.3479 C257.3527,2.6279 258.8397,4.9409 259.1737,8.2849 C259.5507,11.6489 259.2047,14.4269 258.1387,16.6209 C257.9507,17.8819 257.0067,18.8239 255.3127,19.4449 C253.6177,20.0669 251.7787,20.5049 249.7907,20.7619 C248.7847,20.8899 247.8327,20.9899 246.9327,21.0629 C246.0337,21.1359 245.1657,21.1629 244.3297,21.1449 C242.7167,21.1449 241.8807,21.1179 241.8177,21.0629" id="Fill-17"></path>
                <path d="M273.8282,14.3999 C274.5172,14.4729 275.2652,14.5509 276.0702,14.6329 C276.8782,14.7159 277.7492,14.8119 278.6922,14.9209 C280.5532,15.1219 281.9652,14.6379 282.9272,13.4669 C283.9742,11.0559 283.8582,9.2549 282.5842,8.0669 C281.2862,6.8419 279.2772,6.3759 276.5572,6.6669 C274.7372,6.8869 273.6172,7.2069 273.1992,7.6269 C272.7812,8.0479 272.6242,9.1629 272.7282,10.9729 C272.7502,11.3009 272.7652,11.6269 272.7752,11.9459 C272.7872,12.2659 272.8192,12.5679 272.8692,12.8509 C272.9232,13.1349 273.0232,13.4079 273.1682,13.6729 C273.3162,13.9389 273.5362,14.1799 273.8282,14.3999 M273.0422,21.0629 C273.0422,21.2829 273.0552,21.6789 273.0732,22.2559 C273.0952,22.8319 273.1362,23.5859 273.1992,24.5179 C273.2402,25.4499 273.2842,26.3999 273.3252,27.3699 C273.3662,28.3379 273.3972,29.3429 273.4192,30.3859 C273.4412,32.4319 273.3782,34.2779 273.2312,35.9239 C273.0642,37.5879 272.7282,38.4019 272.2282,38.3649 C271.2222,38.3289 270.4172,38.2919 269.8102,38.2549 C269.2032,38.2189 268.7942,38.1539 268.5872,38.0619 C267.3512,37.5139 266.7222,36.5539 266.7032,35.1839 L266.6092,31.5369 C266.5242,28.1199 266.5052,24.7639 266.5462,21.4749 C266.5872,18.1839 266.6092,14.8299 266.6092,11.4109 L266.6092,10.4239 C266.6092,9.3099 266.6312,8.2029 266.6722,7.1069 C266.7132,6.0089 266.7132,4.9039 266.6722,3.7879 C266.6312,2.7829 266.8542,2.0289 267.3482,1.5259 C267.8382,1.0239 268.6592,0.7639 269.8102,0.7449 C271.0012,0.7269 272.0552,0.7129 272.9632,0.7039 C273.8752,0.6949 274.6742,0.6899 275.3662,0.6899 C276.5792,0.6899 278.3372,0.6619 280.6382,0.6079 C282.9402,0.5169 284.7072,0.7639 285.9422,1.3479 C288.5772,2.6279 290.0642,4.9409 290.3982,8.2849 C290.7752,11.6489 290.4292,14.4269 289.3632,16.6209 C289.1752,17.8819 288.2312,18.8239 286.5372,19.4449 C284.8422,20.0669 283.0032,20.5049 281.0162,20.7619 C280.0092,20.8899 279.0572,20.9899 278.1572,21.0629 C277.2582,21.1359 276.3912,21.1629 275.5542,21.1449 C273.9412,21.1449 273.1052,21.1179 273.0422,21.0629" id="Fill-19"></path>
                <path d="M315.1925,25.5869 C315.1705,25.5689 315.1615,25.5239 315.1615,25.4499 C314.8245,24.2259 314.4695,22.9969 314.0955,21.7619 C313.7175,20.5279 313.2995,19.2539 312.8375,17.9369 C312.6925,17.5539 312.5515,17.1789 312.4135,16.8129 C312.2775,16.4479 312.1485,16.0729 312.0235,15.6879 C311.6455,14.6469 311.2465,14.4999 310.8285,15.2499 C310.6205,15.6159 310.4225,16.0729 310.2345,16.6209 C310.0455,17.1689 309.8565,17.7909 309.6685,18.4859 C309.4795,19.1809 309.3035,19.8839 309.1335,20.5969 C308.9675,21.3099 308.8095,22.0319 308.6655,22.7629 C308.5175,23.4939 308.4015,24.0889 308.3195,24.5459 C308.2345,25.0019 308.1715,25.3219 308.1305,25.5049 C308.0675,25.7419 309.2595,25.9519 311.7085,26.1349 C314.1545,26.3369 315.3185,26.1539 315.1925,25.5869 M304.8045,36.4459 C303.6315,37.9809 302.1475,38.5649 300.3485,38.1999 C298.6105,37.8159 297.8775,36.9019 298.1515,35.4579 C298.2555,34.9279 298.3905,34.3699 298.5595,33.7849 C298.7265,33.1999 298.9245,32.5889 299.1545,31.9489 C299.6165,30.7239 299.9905,29.4989 300.2865,28.2749 C300.6195,26.9579 300.9335,25.6869 301.2265,24.4629 C301.5185,23.2379 301.8015,22.0499 302.0755,20.8979 C302.3455,19.6919 302.6635,18.4759 303.0305,17.2509 C303.3955,16.0279 303.8105,14.7569 304.2695,13.4399 C304.8765,11.7229 305.4995,9.9269 306.1375,8.0529 C306.7755,6.1779 307.3985,4.3559 308.0045,2.5829 C308.5085,1.1389 309.9295,0.5619 312.2745,0.8549 C313.7995,1.0739 314.7205,1.6689 315.0355,2.6379 C315.7455,4.7029 316.4565,6.7549 317.1705,8.7929 C317.8805,10.8319 318.5755,12.8779 319.2545,14.9339 C319.9375,16.9919 320.5755,19.0479 321.1695,21.1039 C321.7665,23.1599 322.3045,25.2309 322.7855,27.3149 C322.8075,27.4069 322.8485,27.6019 322.9115,27.9039 C322.9745,28.2059 323.0815,28.5949 323.2255,29.0689 L324.1065,32.1399 L324.9515,35.0739 L325.3295,36.3909 C325.1625,37.3219 324.0935,37.9899 322.1285,38.3919 C320.1195,38.7749 318.6855,37.6889 317.8275,35.1289 C317.5755,34.3429 317.3365,33.5609 317.1075,32.7839 C316.8745,32.0079 316.6575,31.2359 316.4475,30.4679 L314.0635,30.4679 L311.5515,30.4679 C310.7155,30.4679 309.8825,30.4589 309.0555,30.4409 C308.2285,30.4229 307.4615,30.3959 306.7505,30.3579 C306.4365,31.3999 306.1215,32.4279 305.8075,33.4429 C305.4955,34.4569 305.1595,35.4579 304.8045,36.4459" id="Fill-21"></path>
                <path d="M341.2417,14.3999 C341.9307,14.4729 342.6787,14.5509 343.4837,14.6329 C344.2917,14.7159 345.1627,14.8119 346.1057,14.9209 C347.9667,15.1219 349.3787,14.6379 350.3407,13.4669 C351.3877,11.0559 351.2717,9.2549 349.9977,8.0669 C348.7217,6.8419 346.7217,6.3759 344.0027,6.6669 C342.1597,6.8869 341.0307,7.2069 340.6127,7.6269 C340.1947,8.0479 340.0377,9.1629 340.1417,10.9729 C340.1637,11.3009 340.1787,11.6269 340.1887,11.9459 C340.2007,12.2659 340.2327,12.5679 340.2827,12.8509 C340.3357,13.1349 340.4337,13.4079 340.5817,13.6729 C340.7297,13.9389 340.9457,14.1799 341.2417,14.3999 L341.2417,14.3999 Z M340.7697,27.8079 C340.8107,28.6859 340.8397,29.5319 340.8487,30.3449 C340.8577,31.1579 340.8547,31.9569 340.8327,32.7439 C340.8107,33.5299 340.7797,34.2519 340.7387,34.9099 C340.6977,35.5679 340.6227,36.1809 340.5187,36.7469 C340.3297,37.8439 340.0377,38.3819 339.6417,38.3649 C338.6357,38.3289 337.8307,38.2919 337.2237,38.2549 C336.6167,38.2189 336.2077,38.1539 336.0007,38.0619 C334.7647,37.5139 334.1357,36.5539 334.1167,35.1839 L334.0227,31.5369 C333.9817,29.7639 333.9537,28.0509 333.9437,26.3959 C333.9347,24.7419 333.9287,23.1109 333.9287,21.5019 L333.9287,16.5389 C333.9287,14.8929 333.9507,13.1839 333.9917,11.4109 L334.0227,10.4239 C334.0637,9.3099 334.0947,8.2029 334.1167,7.1069 C334.1357,6.0089 334.1267,4.9039 334.0857,3.7879 C334.0417,2.7829 334.2747,2.0289 334.7777,1.5259 C335.2777,1.0239 336.1037,0.7639 337.2547,0.7449 C338.4467,0.7269 339.4997,0.7129 340.4087,0.7039 C341.3207,0.6949 342.1187,0.6899 342.8107,0.6899 C344.0247,0.6899 345.7817,0.6619 348.0837,0.6079 C350.3627,0.5349 352.1207,0.7819 353.3557,1.3479 C355.9907,2.5919 357.4877,4.9039 357.8427,8.2849 C358.1977,11.7039 357.8427,14.4819 356.7767,16.6209 C356.5887,17.9919 355.3527,19.0439 353.0727,19.7739 C354.0137,20.9619 354.5977,22.2329 354.8307,23.5859 C354.9347,24.2619 355.0347,24.9389 355.1297,25.6139 C355.2237,26.2919 355.3027,26.9769 355.3617,27.6709 C355.4057,28.2379 355.4567,28.7909 355.5197,29.3299 C355.5817,29.8699 355.6667,30.4039 355.7707,30.9339 C355.9817,31.9939 356.4627,32.8529 357.2137,33.5119 C358.7827,34.8829 358.7737,36.2359 357.1827,37.5689 C355.6357,38.8299 354.0887,38.8119 352.5387,37.5139 C351.7247,36.8009 351.0577,36.0709 350.5457,35.3209 C350.0327,34.5719 349.6927,33.7849 349.5267,32.9629 C349.3377,32.1399 349.1867,31.3229 349.0707,30.5099 C348.9577,29.6949 348.8667,28.8779 348.8037,28.0549 C348.7627,27.4339 348.6937,26.8339 348.5987,26.2589 C348.5047,25.6829 348.3977,25.1209 348.2717,24.5719 C348.0207,23.4389 347.3697,22.5799 346.3257,21.9949 C346.0527,21.8499 345.7757,21.7439 345.4927,21.6789 C345.2097,21.6159 344.9237,21.5829 344.6307,21.5829 C343.9177,21.5649 343.3137,21.5749 342.8107,21.6109 C342.3077,21.6479 341.8897,21.7029 341.5557,21.7759 C340.8867,21.9399 340.5597,22.4879 340.5817,23.4209 L340.7697,27.8079 Z" id="Fill-23"></path>
                <path d="M380.4083,17.0329 C381.9363,16.9779 383.4803,16.9459 385.0363,16.9369 C386.5963,16.9269 388.1713,16.9329 389.7623,16.9509 C391.9383,16.9509 393.0253,17.9089 393.0253,19.8289 C393.0253,21.7299 391.9253,22.6809 389.7303,22.6809 C388.2023,22.6629 386.6743,22.6569 385.1463,22.6669 C383.6213,22.6769 382.0933,22.7079 380.5653,22.7629 C379.6253,22.7999 378.7513,22.8319 377.9463,22.8589 C377.1383,22.8869 376.3803,22.9179 375.6703,22.9549 C374.3303,23.0099 373.6613,23.8039 373.6613,25.3399 C373.6613,25.9259 373.6673,26.4739 373.6763,26.9849 C373.6863,27.4979 373.7023,27.9999 373.7243,28.4929 C373.7463,28.9879 373.7713,29.4899 373.8023,30.0009 C373.8343,30.5139 373.8593,31.0529 373.8813,31.6189 C373.9223,31.9849 374.3523,32.2319 375.1673,32.3599 C375.6893,32.4519 376.2703,32.5149 376.9093,32.5519 C377.5473,32.5889 378.2543,32.5889 379.0283,32.5519 C379.8233,32.5149 380.4803,32.4829 381.0053,32.4559 C381.5273,32.4279 381.9363,32.4149 382.2283,32.4149 C383.7973,32.4319 385.3733,32.4459 386.9513,32.4559 C388.5323,32.4649 390.1053,32.4699 391.6773,32.4699 C393.8713,32.4699 394.9723,33.4199 394.9723,35.3209 C394.9723,37.2409 393.8713,38.1999 391.6773,38.1999 C390.0453,38.1999 388.4413,38.1909 386.8723,38.1719 C385.3033,38.1539 383.7353,38.1449 382.1663,38.1449 C380.4493,38.1269 378.7383,38.1129 377.0343,38.1039 C375.3303,38.0949 373.6293,38.0899 371.9353,38.0899 C371.4313,38.2369 371.0353,38.3099 370.7433,38.3099 C368.5673,38.3469 367.4573,37.4039 367.4163,35.4859 L367.4163,34.6079 C367.4163,34.2979 367.4043,33.9779 367.3853,33.6479 C367.3853,33.3749 367.3793,33.0819 367.3693,32.7719 C367.3573,32.4599 367.3413,32.1399 367.3223,31.8119 C367.2373,29.5449 367.1683,27.2639 367.1183,24.9699 C367.0643,22.6769 367.0303,20.2589 367.0083,17.7179 C366.9673,13.1119 366.9983,8.4229 367.1023,3.6509 C367.1433,1.7499 368.2433,0.8089 370.3973,0.8269 C370.4793,0.8269 370.5703,0.8329 370.6643,0.8409 C370.7593,0.8509 370.8693,0.8639 370.9943,0.8819 L375.8583,0.9649 C378.3893,1.0019 380.9113,1.0369 383.4203,1.0749 C385.9323,1.1119 388.4543,1.1119 390.9853,1.0749 C393.1613,1.0569 394.2713,2.0069 394.3113,3.9259 C394.3113,5.8089 393.2243,6.7689 391.0483,6.8049 C388.4103,6.8419 385.8323,6.8419 383.3103,6.8049 C380.7883,6.7689 378.2643,6.7219 375.7333,6.6669 C374.1423,6.6319 373.3683,7.5639 373.4093,9.4649 C373.4313,10.4159 373.4503,11.3619 373.4723,12.3029 C373.4943,13.2439 373.5253,14.2079 373.5663,15.1949 C373.6293,16.6579 374.2903,17.3429 375.5443,17.2509 C376.1923,17.2159 376.9153,17.1789 377.7103,17.1419 C378.5063,17.1059 379.4053,17.0689 380.4083,17.0329" id="Fill-25"></path>
                <path d="M405.3571,38.0897 C403.2001,38.0897 402.1031,37.1407 402.0621,35.2387 L401.9681,27.8627 C401.9241,24.7917 401.8951,21.7677 401.8731,18.7867 C401.8511,15.8077 401.8641,12.7637 401.9051,9.6557 L401.9681,6.6127 L402.0621,3.5957 C402.1251,1.6947 403.2441,0.7637 405.4201,0.7997 C407.6181,0.8547 408.6831,1.8327 408.6211,3.7337 L408.5261,6.7217 L408.4631,9.7387 C408.4011,12.8097 408.3851,15.8217 408.4161,18.7727 C408.4481,21.7257 408.4851,24.7287 408.5261,27.7807 C408.5261,28.8407 408.5581,29.8187 408.6211,30.7137 C408.6831,31.6287 409.2491,32.0667 410.3151,32.0297 L414.8651,31.9487 C416.3741,31.9117 417.8681,31.8977 419.3551,31.9077 C420.8391,31.9177 422.3351,31.9307 423.8411,31.9487 C426.0171,31.9667 427.0961,32.9347 427.0741,34.8547 C427.0551,36.7927 425.9451,37.7337 423.7471,37.6787 C420.7571,37.6237 417.8171,37.6237 414.9281,37.6787 C413.3591,37.7157 411.7331,37.7887 410.0481,37.8987 C408.3631,38.0087 406.8001,38.0717 405.3571,38.0897" id="Fill-27"></path>
            </g>
            <path d="M524.815286,100.886032 C525.108286,100.500032 525.311286,100.221032 525.423286,100.056032 C529.024286,94.703032 537.438286,90.213032 540.447286,91.208032 C541.275286,91.483032 542.014286,93.793032 541.823286,97.676032 C540.579286,122.931032 525.214286,148.367032 518.739286,148.367032 L518.735286,148.367032 C512.313286,148.358032 511.765286,140.812032 511.719286,139.283032 C511.706286,138.513032 511.548286,137.780032 511.275286,137.106032 C513.290286,118.912032 520.108286,107.087032 524.815286,100.886032 M455.623286,129.187032 C455.623286,129.182032 455.622286,129.177032 455.623286,129.172032 C458.441286,115.423032 463.924286,106.133032 467.905286,100.886032 C468.198286,100.500032 468.401286,100.221032 468.513286,100.056032 C472.112286,94.703032 480.538286,90.213032 483.538286,91.208032 C484.365286,91.483032 485.104286,93.793032 484.913286,97.676032 C483.669286,122.931032 468.304286,148.367032 461.829286,148.367032 L461.825286,148.367032 C455.405286,148.358032 454.857286,140.815032 454.812286,139.284032 C454.800286,138.631032 454.666286,138.012032 454.464286,137.426032 C454.918286,134.658032 455.305286,131.900032 455.623286,129.187032 M295.639286,174.998032 C295.585286,174.996032 295.531286,174.993032 295.477286,174.992032 C293.303286,174.928032 286.682286,174.733032 283.163286,160.263032 C282.127286,156.010032 281.487286,151.247032 281.184286,146.114032 C303.445286,134.564032 318.448286,91.846032 324.525286,62.694032 C330.407286,63.129032 336.447286,63.526032 342.677286,63.861032 C319.811286,168.677032 297.101286,174.727032 295.639286,174.998032 M294.117286,59.976032 C299.925286,60.582032 305.977286,61.164032 312.245286,61.708032 C306.836286,86.685032 295.036286,118.655032 281.144286,131.339032 C282.176286,108.630032 287.725286,81.980032 294.117286,59.976032 M312.768286,16.054032 C313.119286,16.009032 313.465286,15.934032 313.802286,15.828032 C314.787286,17.738032 316.957286,24.414032 315.072286,44.381032 C314.916286,46.030032 314.703286,47.781032 314.445286,49.607032 C308.706286,49.116032 303.167286,48.590032 297.812286,48.043032 C303.460286,30.935032 309.219286,18.443032 312.768286,16.054032 M182.823286,147.657032 C181.366286,124.781032 188.730286,98.731032 194.103286,92.217032 C196.004286,100.234032 192.555286,125.205032 182.823286,147.657032 M90.082286,140.229032 C89.072286,140.095032 88.046286,139.927032 87.001286,139.727032 C48.847286,132.389032 41.549286,95.018032 40.182286,79.292032 C39.646286,73.114032 39.642286,67.101032 40.076286,61.375032 C42.677286,59.200032 45.415286,57.481032 48.281286,56.236032 C63.174286,49.760032 77.545286,57.766032 77.663286,57.835032 C80.590286,59.535032 84.331286,58.546032 86.035286,55.624032 C87.735286,52.702032 86.746286,48.953032 83.825286,47.252032 C83.033286,46.792032 64.206286,36.077032 43.586286,44.926032 C43.235286,45.076032 42.890286,45.230032 42.543286,45.389032 C46.511286,28.768032 54.198286,16.671032 62.094286,13.669032 C71.205286,10.205032 81.465286,13.033032 90.260286,21.421032 C113.617286,43.700032 111.072286,84.713032 101.795286,113.065032 C98.261286,123.866032 94.276286,132.814032 90.082286,140.229032 M42.980286,176.018032 C42.870286,176.012032 42.758286,176.009032 42.649286,176.009032 C42.591286,176.009032 42.533286,176.010032 42.475286,176.011032 C42.360286,176.038032 29.213286,176.252032 20.402286,165.425032 C11.376286,154.332032 9.83728598,134.840032 15.954286,109.057032 C18.999286,96.223032 22.963286,85.451032 27.736286,76.926032 C27.802286,78.067032 27.883286,79.209032 27.983286,80.352032 C31.267286,118.132032 51.717286,144.532032 82.838286,151.370032 C64.057286,176.384032 44.070286,176.056032 42.980286,176.018032 M620.326286,154.194032 C618.612286,151.277032 614.859286,150.302032 611.946286,152.017032 C583.445286,168.770032 566.658286,151.652032 565.987286,150.947032 C564.749286,149.605032 562.993286,148.891032 561.150286,148.985032 C559.326286,149.086032 557.642286,149.996032 556.558286,151.465032 C546.940286,164.511032 528.659286,182.697032 519.902286,180.290032 C515.665286,179.123032 512.531286,171.436032 511.277286,159.174032 C513.419286,160.082032 515.889286,160.608032 518.719286,160.612032 L518.731286,160.612032 C537.139286,160.612032 552.845286,122.807032 554.051286,98.278032 C554.703286,85.048032 548.226286,80.890032 544.306286,79.589032 C533.849286,76.117032 520.494286,85.445032 515.313286,93.148032 L515.062286,93.484032 C508.129286,102.620032 497.281286,122.056032 498.571286,152.900032 C488.705286,165.802032 471.413286,182.604032 462.990286,180.290032 C458.756286,179.121032 455.621286,171.435032 454.367286,159.174032 C456.509286,160.082032 458.979286,160.608032 461.809286,160.612032 L461.827286,160.612032 C480.229286,160.612032 495.936286,122.807032 497.141286,98.278032 C497.793286,85.048032 491.316286,80.890032 487.396286,79.589032 C476.941286,76.117032 463.584286,85.445032 458.403286,93.148032 L458.152286,93.484032 C452.471286,100.970032 444.172286,115.386032 442.062286,137.309032 C437.541286,163.349032 428.541286,177.523032 422.741286,178.323032 C421.316286,176.063032 420.715286,168.046032 421.520286,160.969032 C426.540286,110.432032 415.122286,103.835032 398.446286,100.032032 L396.772286,99.645032 C396.002286,99.464032 395.219286,99.222032 394.430286,98.932032 C392.535286,88.201032 388.399286,78.737032 379.714286,78.737032 C369.331286,78.737032 367.521286,84.622032 367.226286,87.153032 C366.395286,94.268032 374.578286,102.016032 383.056286,106.937032 C384.425286,120.973032 383.594286,141.515032 377.647286,158.759032 C375.124286,166.072032 369.564286,178.342032 360.656286,178.359032 L360.648286,178.359032 C359.906286,178.359032 359.063286,178.172032 357.943286,176.830032 C347.817286,164.710032 350.712286,112.480032 356.820286,64.505032 C396.112286,65.983032 441.515286,65.001032 491.655286,58.428032 C495.009286,57.988032 497.370286,54.914032 496.930286,51.561032 C496.490286,48.209032 493.401286,45.853032 490.064286,46.287032 C441.249286,52.687032 396.923286,53.704032 358.451286,52.311032 C359.536286,44.582032 360.683286,37.065032 361.854286,29.972032 C362.651286,25.524032 363.438286,20.990032 364.215286,16.362032 C364.771286,13.044032 362.547286,9.898032 359.233286,9.317032 C355.945286,8.738032 352.760286,10.936032 352.154286,14.248032 C351.771286,16.341032 350.978286,20.769032 349.964286,26.902032 C348.395286,35.686032 346.817286,43.950032 345.236286,51.724032 C338.864286,51.395032 332.673286,51.006032 326.663286,50.570032 C326.913286,48.772032 327.114286,47.084032 327.260286,45.533032 C329.492286,21.909032 327.232286,9.356032 319.932286,4.830032 C316.598286,2.758032 313.059286,2.961032 310.474286,3.939032 C306.195286,4.503032 297.153286,9.131032 285.115286,46.677032 C272.939286,45.299032 261.923286,43.874032 252.197286,42.614032 C242.115286,41.308032 233.408286,40.180032 225.972286,39.426032 C176.743286,34.445032 166.702286,66.694032 166.300286,68.071032 C165.349286,71.315032 167.207286,74.717032 170.451286,75.669032 C171.027286,75.838032 171.607286,75.919032 172.177286,75.919032 C174.826286,75.919032 177.267286,74.187032 178.050286,71.518032 C178.118286,71.280032 185.526286,47.637032 224.738286,51.609032 C232.003286,52.344032 240.632286,53.462032 250.622286,54.757032 C259.819286,55.948032 270.156286,57.285032 281.527286,58.593032 C273.866286,85.729032 269.162286,114.430032 268.840286,136.492032 C268.838286,136.597032 268.836286,136.704032 268.836286,136.809032 C260.429286,136.273032 252.575286,126.669032 247.087286,117.854032 C247.587286,109.250032 247.503286,102.012032 247.362286,97.798032 C246.953286,85.507032 246.728286,78.737032 239.922286,78.737032 C236.540286,78.737032 233.800286,81.478032 233.800286,84.859032 C233.800286,85.738032 233.986286,86.573032 234.318286,87.329032 C235.731286,94.933032 237.890286,145.309032 221.257286,167.990032 C216.508286,174.469032 210.798286,177.844032 203.803286,178.310032 C200.750286,178.511032 192.184286,179.085032 186.871286,166.809032 C199.620286,145.657032 206.758286,115.487032 206.758286,98.456032 C206.758286,81.299032 199.408286,78.737032 195.026286,78.737032 C189.950286,78.737032 185.402286,82.338032 181.510286,89.441032 C176.113286,99.286032 172.006286,115.526032 170.790286,131.823032 C170.184286,139.946032 169.977286,153.185032 173.323286,165.081032 C167.316286,173.596032 160.983286,178.296032 155.231286,178.296032 C152.475286,178.296032 150.468286,177.315032 148.726286,175.112032 C140.310286,164.480032 142.355286,132.391032 146.735286,105.954032 C149.954286,94.930032 150.727286,86.118032 150.789286,85.355032 C151.048286,82.163032 148.804286,79.311032 145.641286,78.811032 C142.470286,78.303032 139.463286,80.334032 138.728286,83.451032 C138.194286,85.713032 136.496286,93.138032 134.794286,103.086032 C131.623286,113.773032 125.951286,126.503032 116.000286,134.049032 C112.397286,136.781032 108.485286,138.657032 104.212286,139.687032 C107.513286,133.032032 110.620286,125.472032 113.434286,116.873032 C130.029286,66.148032 116.710286,29.730032 98.712286,12.561032 C86.547286,0.958032005 71.229286,-2.903968 57.741286,2.223032 C42.864286,7.880032 31.570286,29.608032 28.419286,55.418032 C17.656286,66.263032 9.48728598,83.266032 4.04028598,106.231032 C-3.08671402,136.280032 -0.776714024,158.795032 10.906286,173.152032 C22.849286,187.831032 40.108286,188.238032 42.569286,188.255032 C45.841286,188.371032 73.695286,188.107032 96.717286,152.862032 C106.723286,152.711032 115.678286,149.673032 123.436286,143.777032 C126.182286,141.690032 128.655286,139.331032 130.886286,136.786032 C129.977286,154.967032 131.493286,173.068032 139.122286,182.709032 C143.176286,187.832032 148.746286,190.541032 155.231286,190.541032 C164.155286,190.541032 172.103286,185.585032 178.929286,177.825032 C184.465286,186.219032 192.515286,190.604032 202.336286,190.603032 C203.085286,190.603032 203.847286,190.579032 204.616286,190.527032 C216.834286,189.714032 233.204286,182.363032 241.794286,151.966032 C243.280286,146.706032 244.390286,141.275032 245.214286,135.940032 C252.899286,144.639032 260.912286,149.066032 269.177286,149.117032 C271.429286,179.442032 283.960286,186.790032 294.849286,187.221032 C298.375286,187.551032 308.634286,186.338032 321.200286,165.567032 C327.539286,155.084032 333.582286,141.212032 339.302286,124.032032 C338.433286,151.028032 340.410286,174.941032 348.547286,184.682032 C351.785286,188.556032 355.968286,190.603032 360.650286,190.603032 L360.680286,190.603032 C384.946286,190.558032 395.960286,153.153032 395.929286,118.419032 C395.927286,116.427032 395.887286,114.255032 395.785286,111.985032 C405.786286,114.265032 413.668286,116.154032 409.345286,159.661032 C408.817286,164.246032 407.575286,179.755032 413.857286,186.803032 C416.073286,189.289032 418.967286,190.603032 422.229286,190.603032 C431.458286,190.603032 438.723286,183.064032 444.162286,172.112032 C447.007286,183.421032 452.148286,190.003032 459.740286,192.095032 C461.287286,192.522032 462.861286,192.719032 464.459286,192.719032 C477.308286,192.717032 491.385286,179.877032 500.512286,169.723032 C503.215286,182.508032 508.536286,189.859032 516.650286,192.095032 C518.196286,192.522032 519.771286,192.719032 521.369286,192.719032 C536.888286,192.716032 554.211286,173.978032 562.419286,163.875032 C573.229286,171.303032 593.437286,177.100032 618.152286,162.574032 C621.065286,160.860032 622.040286,157.108032 620.326286,154.194032" id="owltree"></path>
        </g>
    </g>
</svg>